HIERARCHY
ROOT Hips
{
	OFFSET 0.000000 0.000000 0.000000
	CHANNELS 6 Xposition Yposition Zposition Zrotation Yrotation Xrotation 
	JOINT LHipJoint
	{
		OFFSET 0.000000 0.000000 0.000000
		CHANNELS 3 Zrotation Yrotation Xrotation
		JOINT LeftUpLeg
		{
			OFFSET 1.363060 -1.794630 0.839290
			CHANNELS 3 Zrotation Yrotation Xrotation
			JOINT LeftLeg
			{
				OFFSET 2.448110 -6.726130 0.000000
				CHANNELS 3 Zrotation Yrotation Xrotation
				JOINT LeftFoot
				{
					OFFSET 2.562200 -7.039590 0.000000
					CHANNELS 3 Zrotation Yrotation Xrotation
					JOINT LeftToeBase
					{
						OFFSET 0.157640 -0.433110 2.322550
						CHANNELS 3 Zrotation Yrotation Xrotation
						End Site
						{
							OFFSET 0.000000 0.000000 0.000000
						}
					}
				}
			}
		}
	}
	JOINT RHipJoint
	{
		OFFSET 0.000000 0.000000 0.000000
		CHANNELS 3 Zrotation Yrotation Xrotation
		JOINT RightUpLeg
		{
			OFFSET -1.305520 -1.794630 0.839290
			CHANNELS 3 Zrotation Yrotation Xrotation
			JOINT RightLeg
			{
				OFFSET -2.542530 -6.985550 0.000000
				CHANNELS 3 Zrotation Yrotation Xrotation
				JOINT RightFoot
				{
					OFFSET -2.568260 -7.056230 0.000000
					CHANNELS 3 Zrotation Yrotation Xrotation
					JOINT RightToeBase
					{
						OFFSET -0.164730 -0.452590 2.363150
						CHANNELS 3 Zrotation Yrotation Xrotation
						End Site
						{
							OFFSET 0.000000 0.000000 0.000000
						}
					}
				}
			}
		}
	}
	JOINT LowerBack
	{
		OFFSET 0.000000 0.000000 0.000000
		CHANNELS 3 Zrotation Yrotation Xrotation
		JOINT Spine
		{
			OFFSET 0.028270 2.035590 -0.193380
			CHANNELS 3 Zrotation Yrotation Xrotation
			JOINT Spine1
			{
				OFFSET 0.056720 2.048850 -0.042750
				CHANNELS 3 Zrotation Yrotation Xrotation
				JOINT Neck
				{
					OFFSET 0.000000 0.000000 0.000000
					CHANNELS 3 Zrotation Yrotation Xrotation
					JOINT Neck1
					{
						OFFSET -0.054170 1.746240 0.172020
						CHANNELS 3 Zrotation Yrotation Xrotation
						JOINT Head
						{
							OFFSET 0.104070 1.761360 -0.123970
							CHANNELS 3 Zrotation Yrotation Xrotation
							End Site
							{
								OFFSET 0.000000 0.000000 0.000000
							}
						}
					}
				}
				JOINT LeftShoulder
				{
					OFFSET 0.000000 0.000000 0.000000
					CHANNELS 3 Zrotation Yrotation Xrotation
					JOINT LeftArm
					{
						OFFSET 3.362410 1.200890 -0.311210
						CHANNELS 3 Zrotation Yrotation Xrotation
						JOINT LeftForeArm
						{
							OFFSET 4.983000 -0.000000 -0.000000
							CHANNELS 3 Zrotation Yrotation Xrotation
							JOINT LeftHand
							{
								OFFSET 3.483560 -0.000000 -0.000000
								CHANNELS 3 Zrotation Yrotation Xrotation
								JOINT LeftFingerBase
								{
									OFFSET 0.000000 0.000000 0.000000
									CHANNELS 3 Zrotation Yrotation Xrotation
									JOINT LeftHandIndex1
									{
										OFFSET 0.715260 -0.000000 -0.000000
										CHANNELS 3 Zrotation Yrotation Xrotation
										End Site
										{
											OFFSET 0.000000 0.000000 0.000000
										}
									}
								}
								JOINT LThumb
								{
									OFFSET 0.000000 0.000000 0.000000
									CHANNELS 3 Zrotation Yrotation Xrotation
									End Site
									{
										OFFSET 0.000000 0.000000 0.000000
									}
								}
							}
						}
					}
				}
				JOINT RightShoulder
				{
					OFFSET 0.000000 0.000000 0.000000
					CHANNELS 3 Zrotation Yrotation Xrotation
					JOINT RightArm
					{
						OFFSET -3.136600 1.374050 -0.404650
						CHANNELS 3 Zrotation Yrotation Xrotation
						JOINT RightForeArm
						{
							OFFSET -5.241900 -0.000000 -0.000000
							CHANNELS 3 Zrotation Yrotation Xrotation
							JOINT RightHand
							{
								OFFSET -3.444170 -0.000000 -0.000000
								CHANNELS 3 Zrotation Yrotation Xrotation
								JOINT RightFingerBase
								{
									OFFSET 0.000000 0.000000 0.000000
									CHANNELS 3 Zrotation Yrotation Xrotation
									JOINT RightHandIndex1
									{
										OFFSET -0.622530 -0.000000 -0.000000
										CHANNELS 3 Zrotation Yrotation Xrotation
										End Site
										{
											OFFSET 0.000000 0.000000 0.000000
										}
									}
								}
								JOINT RThumb
								{
									OFFSET 0.000000 0.000000 0.000000
									CHANNELS 3 Zrotation Yrotation Xrotation
									End Site
									{
										OFFSET 0.000000 0.000000 0.000000
									}
								}
							}
						}
					}
				}
			}
		}
	}
}
MOTION
Frames: 10
Frame Time: 0.008333
-0.161484 16.857537 0.113297 25.028190 80.976794 27.518426 -10.316483 0.942189 2.699323 -8.796692 1.069132 -27.791815 -1.863887 0.654190 23.740881 0.730259 4.275985 -2.026577 0.491600 -0.000000 -27.797200 10.599295 -3.664426 -2.490697 2.492016 -17.105042 -1.891305 -0.091352 -3.355258 43.977855 -0.815667 -2.754840 5.611123 -0.565600 0.000000 -71.723800 -5.358407 -0.692225 -2.162715 -1.374841 -0.392781 -2.614363 -4.504320 -0.485368 3.039985 10.715812 -13.999911 -10.312382 -1.434061 -0.075855 -0.693199 0.000000 0.000000 0.000000 -6.165838 24.564304 1.678748 -88.646292 27.124562 -4.769909 -3.839591 -18.708916 -0.022299 -9.023698 7.476329 -0.600669 -0.011626 -0.127758 -0.000000 0.000000 0.000000 0.000000 0.000000 0.000000 0.000000 11.621199 -9.441072 0.231336 43.433268 12.159556 5.418998 2.090946 44.820832 0.011056 2.195277 4.635004 0.089180 0.063549 -0.124799 -0.000000 0.000000 0.000000 0.000000 0.000000 0.000000 0.000000 
0.041636 16.843039 0.147324 25.142098 80.352528 27.375125 -10.323922 1.057030 2.449531 -9.184228 2.249420 -27.398050 -1.854317 0.726962 24.817922 0.748283 4.437778 -2.120541 0.485100 0.000000 -28.065800 10.848036 -3.567967 -2.578756 1.677349 -17.852317 -3.547956 -0.382472 -3.520329 47.359063 -1.077691 -4.313209 6.818552 -0.930000 0.000000 -69.158900 -5.679598 -0.824741 -1.921411 -1.439177 -0.496965 -2.582496 -4.545935 -0.586396 2.990919 10.845013 -14.042062 -10.311463 -1.467400 -0.078322 -0.694561 0.000000 0.000000 0.000000 -5.965785 24.288035 1.678430 -88.657741 26.947607 -3.802217 -3.800698 -19.219182 -0.021804 -8.978806 7.418608 -0.593266 -0.009690 -0.126900 -0.000000 0.000000 0.000000 0.000000 0.000000 0.000000 0.000000 11.874180 -9.517865 0.208978 43.997411 11.954244 5.458647 2.101436 44.924914 0.011060 2.160607 4.641396 0.087891 0.064481 -0.124207 -0.000000 0.000000 0.000000 0.000000 0.000000 0.000000 0.000000 
0.242544 16.828269 0.183177 25.094345 79.708918 27.121941 -10.325371 1.170055 2.201904 -9.542711 3.507958 -27.039339 -1.868022 0.784425 25.802161 0.760797 4.513224 -2.498549 0.444900 -0.000001 -28.395900 11.063817 -3.447219 -2.638202 1.035943 -18.455005 -5.296577 -0.626190 -3.664472 50.555231 -1.345283 -6.004018 7.472584 -1.351401 0.000000 -65.360600 -5.966568 -0.969441 -1.712841 -1.495824 -0.617080 -2.557640 -4.590036 -0.704035 2.937639 10.961631 -14.075273 -10.309037 -1.506711 -0.081361 -0.694919 0.000000 0.000000 0.000000 -5.776429 23.977452 1.672845 -88.549129 26.715599 -2.758872 -3.767046 -19.786801 -0.021421 -8.997750 7.377418 -0.591264 -0.007901 -0.125709 -0.000000 0.000000 0.000000 0.000000 0.000000 0.000000 0.000000 12.127659 -9.586869 0.185885 44.659135 11.728830 5.526398 2.117799 44.996176 0.011094 2.139398 4.643155 0.086901 0.065574 -0.123348 -0.000000 0.000000 0.000000 0.000000 0.000000 0.000000 0.000000 
0.441334 16.813703 0.220439 24.854785 79.033404 26.727385 -10.323719 1.281129 1.963495 -9.853581 4.789801 -26.694749 -1.902901 0.828931 26.691157 0.768627 4.507776 -3.141632 0.373500 -0.000000 -28.802900 11.243518 -3.309746 -2.671483 0.574460 -18.911483 -7.124546 -0.823607 -3.794995 53.517157 -1.595355 -7.677582 7.523258 -1.753900 -0.000000 -60.834200 -6.208829 -1.120131 -1.539683 -1.543131 -0.747534 -2.540032 -4.636315 -0.832685 2.881528 11.062824 -14.100337 -10.303621 -1.551441 -0.084950 -0.693863 0.000000 0.000000 0.000000 -5.605720 23.640893 1.660984 -88.318424 26.423150 -1.686924 -3.739235 -20.383281 -0.021128 -9.067875 7.339190 -0.592762 -0.006400 -0.124152 -0.000000 0.000000 0.000000 0.000000 0.000000 0.000000 0.000000 12.376790 -9.647283 0.161774 45.413683 11.480517 5.613761 2.139884 45.027858 0.011152 2.127462 4.640537 0.086313 0.066840 -0.122264 -0.000000 0.000000 0.000000 0.000000 0.000000 0.000000 0.000000 
0.638192 16.799896 0.258709 24.419724 78.316842 26.183940 -10.321413 1.390054 1.739682 -10.105026 6.045203 -26.339580 -1.954931 0.862396 27.480029 0.774217 4.441441 -4.004687 0.278400 -0.000000 -29.300800 11.386934 -3.162006 -2.680875 0.291685 -19.223585 -9.018256 -0.978800 -3.916084 56.203610 -1.809982 -9.191883 6.976217 -2.057300 -0.000000 -56.031100 -6.400212 -1.271460 -1.402878 -1.580268 -0.883266 -2.528924 -4.684217 -0.967195 2.826787 11.149061 -14.124389 -10.296428 -1.600769 -0.088999 -0.691777 0.000000 0.000000 0.000000 -5.450472 23.295597 1.642252 -87.966337 26.053544 -0.624045 -3.717987 -20.963101 -0.020894 -9.166427 7.287059 -0.594958 -0.005426 -0.122193 -0.000000 0.000000 0.000000 0.000000 0.000000 0.000000 0.000000 12.622366 -9.705380 0.135827 46.250645 11.214200 5.718843 2.167150 45.009715 0.011222 2.114057 4.636692 0.085627 0.068338 -0.121007 -0.000000 0.000000 0.000000 0.000000 0.000000 0.000000 0.000000 
0.833292 16.787372 0.297664 23.798908 77.554508 25.494930 -10.321032 1.496740 1.534367 -10.288466 7.232946 -25.949325 -2.018358 0.886542 28.162443 0.781046 4.345476 -5.022823 0.169101 -0.000000 -29.899800 11.494921 -3.008538 -2.668422 0.183695 -19.395465 -10.960630 -1.095639 -4.028178 58.579156 -1.977107 -10.430945 5.890260 -2.201700 -0.000000 -51.314500 -6.532460 -1.418441 -1.301472 -1.606043 -1.019708 -2.524725 -4.733728 -1.102955 2.771389 11.216839 -14.143475 -10.283019 -1.654463 -0.093557 -0.687450 0.000000 0.000000 0.000000 -5.318283 22.932676 1.616328 -87.497422 25.617336 0.377948 -3.702901 -21.510487 -0.020670 -9.263902 7.206733 -0.594652 -0.005172 -0.119821 -0.000000 0.000000 0.000000 0.000000 0.000000 0.000000 0.000000 12.856877 -9.756773 0.108135 47.171474 10.911150 5.814211 2.199859 44.938022 0.011300 2.099760 4.628987 0.084842 0.070044 -0.119611 -0.000000 0.000000 0.000000 0.000000 0.000000 0.000000 0.000000 
1.026834 16.776575 0.337211 23.031923 76.747166 24.691363 -10.323310 1.601045 1.349196 -10.403995 8.321277 -25.498974 -2.086647 0.902365 28.729991 0.793107 4.259640 -6.122081 0.054800 -0.000001 -30.599000 11.570897 -2.852438 -2.637029 0.235592 -19.439098 -12.931326 -1.175125 -4.130207 60.617998 -2.088972 -11.308594 4.348060 -2.158000 -0.000000 -46.819600 -6.605812 -1.558294 -1.231650 -1.620800 -1.153870 -2.525921 -4.784322 -1.236788 2.718838 11.268644 -14.165458 -10.264713 -1.711759 -0.098532 -0.681351 0.000000 0.000000 0.000000 -5.198463 22.563102 1.583457 -86.917880 25.103846 1.290806 -3.694192 -21.985504 -0.020418 -9.326579 7.086599 -0.588541 -0.005910 -0.117048 -0.000000 0.000000 0.000000 0.000000 0.000000 0.000000 0.000000 13.083592 -9.810030 0.077821 48.166051 10.571382 5.890056 2.237360 44.804501 0.011372 2.074114 4.619982 0.083558 0.072000 -0.118115 -0.000000 0.000000 0.000000 0.000000 0.000000 0.000000 0.000000 
1.219073 16.767915 0.377211 22.152717 75.903452 23.797938 -10.329627 1.702830 1.184635 -10.450575 9.291411 -24.971456 -2.152905 0.911113 29.179366 0.813805 4.222258 -7.230391 -0.058500 0.000000 -31.384200 11.617093 -2.695854 -2.590204 0.433904 -19.373408 -14.906153 -1.215735 -4.219445 62.298488 -2.142181 -11.777018 2.454316 -1.935000 -0.000000 -42.576600 -6.619715 -1.690158 -1.187949 -1.624611 -1.284711 -2.530234 -4.835477 -1.367398 2.674425 11.309466 -14.198330 -10.245103 -1.772115 -0.103810 -0.674598 0.000000 0.000000 0.000000 -5.076235 22.207655 1.544548 -86.235220 24.495142 2.094030 -3.692132 -22.345043 -0.020102 -9.322722 6.924927 -0.574625 -0.007902 -0.113901 -0.000000 0.000000 0.000000 0.000000 0.000000 0.000000 0.000000 13.311148 -9.874149 0.043385 49.213969 10.195697 5.945784 2.278300 44.604501 0.011422 2.022662 4.616551 0.081275 0.074251 -0.116545 -0.000000 0.000000 0.000000 0.000000 0.000000 0.000000 0.000000 
1.409918 16.761663 0.418133 21.252409 75.028180 22.888730 -10.336518 1.802692 1.036838 -10.448114 10.134118 -24.335426 -2.211603 0.912242 29.491255 0.846619 4.277652 -8.276753 -0.167700 0.000000 -32.231300 11.641129 -2.538687 -2.532544 0.737123 -19.221141 -16.853993 -1.214809 -4.295056 63.606755 -2.137639 -11.825486 0.328839 -1.574300 -0.000000 -38.574500 -6.584424 -1.812508 -1.159555 -1.619850 -1.409737 -2.539050 -4.887684 -1.492201 2.623429 11.329303 -14.231881 -10.210573 -1.835163 -0.109567 -0.663462 0.000000 0.000000 0.000000 -4.969612 21.793980 1.499053 -85.455667 23.866457 2.740574 -3.694130 -22.645413 -0.019662 -9.214718 6.710906 -0.550202 -0.011131 -0.110493 -0.000000 0.000000 0.000000 0.000000 0.000000 0.000000 0.000000 13.515879 -9.942067 0.008268 50.354092 9.743586 5.896035 2.325447 44.334282 0.011465 1.974125 4.596702 0.078793 0.076613 -0.114896 -0.000000 0.000000 0.000000 0.000000 0.000000 0.000000 0.000000 
1.599735 16.757925 0.459834 20.341338 74.142601 21.966337 -10.346405 1.900476 0.904141 -10.392583 10.856695 -23.591937 -2.257783 0.907606 29.674304 0.892083 4.443172 -9.214491 -0.273000 0.000000 -33.106800 11.642474 -2.382076 -2.468980 1.137090 -19.015130 -18.748204 -1.170126 -4.353598 64.530280 -2.081474 -11.488338 -1.897152 -1.140700 -0.000000 -34.831300 -6.502153 -1.928986 -1.138774 -1.606725 -1.532165 -2.546629 -4.939604 -1.613940 2.583468 11.344424 -14.290679 -10.178132 -1.900014 -0.115445 -0.652865 0.000000 0.000000 0.000000 -4.841226 21.399150 1.449035 -84.584930 23.148442 3.251300 -3.701766 -22.802654 -0.019098 -8.984933 6.461008 -0.516172 -0.015866 -0.106855 -0.000000 0.000000 0.000000 0.000000 0.000000 0.000000 0.000000 13.730203 -10.039786 -0.031457 51.527544 9.250880 5.793821 2.374920 43.989093 0.011470 1.889863 4.583910 0.075010 0.079251 -0.113189 -0.000000 0.000000 0.000000 0.000000 0.000000 0.000000 0.000000 
